<svg width="553" height="298" viewBox="0 0 553 298" fill="none" xmlns="http://www.w3.org/2000/svg">
<g clip-path="url(#clip0_20_85)">
<path opacity="0.1" d="M553 191.27C553.007 199.366 551.892 207.423 549.689 215.214C547.559 222.724 544.426 229.914 540.374 236.589C540.374 260.774 524.025 281.677 500.296 291.621C490.38 295.734 479.743 297.835 469.006 297.8H104.978C85.5217 297.8 67.4912 292.557 52.7042 283.627C48.4723 281.083 44.4578 278.194 40.7016 274.991C24.2663 260.885 14.0764 241.393 14.0764 219.863C4.8524 205.678 -0.0385932 189.12 5.17726e-05 172.207C5.17726e-05 136.794 20.9744 106.343 51.022 92.8993C55.012 91.1149 59.1349 89.643 63.3533 88.4968C64.8454 88.0913 66.3536 87.7276 67.8779 87.4058C71.9413 86.5416 76.0629 85.9769 80.2092 85.7162C81.7077 85.6229 83.2143 85.5698 84.7289 85.5569H85.5604C87.2329 85.5569 88.8909 85.6148 90.5393 85.7114L91.0807 84.7942C91.7445 83.6871 92.4245 82.5913 93.1206 81.5068C94.3774 79.5308 95.6955 77.5838 97.0747 75.6657C98.5185 73.6415 100.025 71.6494 101.594 69.6895L101.996 69.2068C102.885 68.0997 103.794 67.0055 104.722 65.9242C107.622 62.5483 110.684 59.2738 113.906 56.1006C148.764 21.9811 203.373 0.0167847 264.763 0.0167847C312.532 0.0167847 356.197 13.3161 389.643 35.29C402.313 28.1294 416.627 24.3722 431.185 24.3851C478.432 24.3851 516.746 63.1823 516.746 111.04C516.739 114.068 516.577 117.094 516.262 120.106C527.651 128.157 536.934 138.825 543.328 151.211C549.722 163.596 553.039 177.336 553 191.27Z" fill="#0CBB7E"/>
<path opacity="0.2" d="M113.916 56.0837V65.9073H104.732C107.609 62.5347 110.671 59.2601 113.916 56.0837Z" fill="#0CBB7E"/>
<path opacity="0.2" d="M130.772 53.593H118.441V65.9074H130.772V53.593Z" fill="#0CBB7E"/>
<path opacity="0.2" d="M147.623 53.593H135.292V65.9074H147.623V53.593Z" fill="#0CBB7E"/>
<path opacity="0.2" d="M164.479 53.593H152.148V65.9074H164.479V53.593Z" fill="#0CBB7E"/>
<path opacity="0.2" d="M181.33 53.593H168.999V65.9074H181.33V53.593Z" fill="#0CBB7E"/>
<path opacity="0.2" d="M198.186 53.593H185.854V65.9074H198.186V53.593Z" fill="#0CBB7E"/>
<path d="M215.041 53.593H202.71V65.9074H215.041V53.593Z" fill="#0CBB7E"/>
<path opacity="0.2" d="M231.893 53.593H219.561V65.9074H231.893V53.593Z" fill="#0CBB7E"/>
<path opacity="0.2" d="M248.748 53.593H236.417V65.9074H248.748V53.593Z" fill="#0CBB7E"/>
<path opacity="0.2" d="M265.599 53.593H253.268V65.9074H265.599V53.593Z" fill="#0CBB7E"/>
<path d="M282.455 53.593H270.124V65.9074H282.455V53.593Z" fill="#0CBB7E"/>
<path opacity="0.2" d="M299.311 53.593H286.98V65.9074H299.311V53.593Z" fill="#0CBB7E"/>
<path opacity="0.2" d="M316.162 53.593H303.831V65.9074H316.162V53.593Z" fill="#0CBB7E"/>
<path opacity="0.2" d="M333.018 53.593H320.687V65.9074H333.018V53.593Z" fill="#0CBB7E"/>
<path opacity="0.2" d="M349.874 53.593H337.543V65.9074H349.874V53.593Z" fill="#0CBB7E"/>
<path opacity="0.2" d="M366.725 53.593H354.394V65.9074H366.725V53.593Z" fill="#0CBB7E"/>
<path opacity="0.2" d="M383.581 53.593H371.249V65.9074H383.581V53.593Z" fill="#0CBB7E"/>
<path d="M400.432 53.593H388.101V65.9074H400.432V53.593Z" fill="#0CBB7E"/>
<path d="M417.288 53.593H404.956V65.9074H417.288V53.593Z" fill="#0CBB7E"/>
<path opacity="0.2" d="M434.143 53.593H421.812V65.9074H434.143V53.593Z" fill="#0CBB7E"/>
<path opacity="0.2" d="M450.995 53.593H438.663V65.9074H450.995V53.593Z" fill="#0CBB7E"/>
<path d="M467.851 53.593H455.519V65.9074H467.851V53.593Z" fill="#0CBB7E"/>
<path d="M484.702 53.593H472.371V65.9074H484.702V53.593Z" fill="#0CBB7E"/>
<path d="M97.065 75.6634V81.5044H93.1109C94.3677 79.5156 95.6857 77.5686 97.065 75.6634Z" fill="#0CBB7E"/>
<path opacity="0.2" d="M113.916 69.1899H101.585V81.5044H113.916V69.1899Z" fill="#0CBB7E"/>
<path d="M130.772 69.1899H118.441V81.5044H130.772V69.1899Z" fill="#0CBB7E"/>
<path opacity="0.2" d="M147.623 69.1899H135.292V81.5044H147.623V69.1899Z" fill="#0CBB7E"/>
<path opacity="0.7" d="M164.479 69.1899H152.148V81.5044H164.479V69.1899Z" fill="#0CBB7E"/>
<path opacity="0.2" d="M181.33 69.1899H168.999V81.5044H181.33V69.1899Z" fill="#0CBB7E"/>
<path opacity="0.4" d="M198.186 69.1899H185.854V81.5044H198.186V69.1899Z" fill="#0CBB7E"/>
<path d="M215.041 69.1899H202.71V81.5044H215.041V69.1899Z" fill="#0CBB7E"/>
<path opacity="0.4" d="M231.893 69.1899H219.561V81.5044H231.893V69.1899Z" fill="#0CBB7E"/>
<path opacity="0.2" d="M248.748 69.1899H236.417V81.5044H248.748V69.1899Z" fill="#0CBB7E"/>
<path opacity="0.4" d="M265.599 69.1899H253.268V81.5044H265.599V69.1899Z" fill="#0CBB7E"/>
<path d="M282.455 69.1899H270.124V81.5044H282.455V69.1899Z" fill="#0CBB7E"/>
<path opacity="0.4" d="M299.311 69.1899H286.98V81.5044H299.311V69.1899Z" fill="#0CBB7E"/>
<path opacity="0.4" d="M316.162 69.1899H303.831V81.5044H316.162V69.1899Z" fill="#0CBB7E"/>
<path opacity="0.2" d="M333.018 69.1899H320.687V81.5044H333.018V69.1899Z" fill="#0CBB7E"/>
<path opacity="0.4" d="M349.874 69.1899H337.543V81.5044H349.874V69.1899Z" fill="#0CBB7E"/>
<path opacity="0.4" d="M366.725 69.1899H354.394V81.5044H366.725V69.1899Z" fill="#0CBB7E"/>
<path opacity="0.2" d="M383.581 69.1899H371.249V81.5044H383.581V69.1899Z" fill="#0CBB7E"/>
<path opacity="0.2" d="M400.432 69.1899H388.101V81.5044H400.432V69.1899Z" fill="#0CBB7E"/>
<path opacity="0.4" d="M417.288 69.1899H404.956V81.5044H417.288V69.1899Z" fill="#0CBB7E"/>
<path opacity="0.2" d="M434.143 69.1899H421.812V81.5044H434.143V69.1899Z" fill="#0CBB7E"/>
<path d="M450.995 69.1899H438.663V81.5044H450.995V69.1899Z" fill="#0CBB7E"/>
<path d="M467.851 69.1899H455.519V81.5044H467.851V69.1899Z" fill="#0CBB7E"/>
<path d="M484.702 69.1899H472.371V81.5044H484.702V69.1899Z" fill="#0CBB7E"/>
<path opacity="0.2" d="M63.3533 88.4993V97.1064H51.0219V92.9018C55.0119 91.1174 59.1348 89.6455 63.3533 88.4993Z" fill="#0CBB7E"/>
<path opacity="0.2" d="M80.2091 85.7187V97.1063H67.8778V87.4082L80.2091 85.7187Z" fill="#0CBB7E"/>
<path d="M97.0602 84.7919H84.7289V97.1064H97.0602V84.7919Z" fill="#0CBB7E"/>
<path opacity="0.7" d="M113.916 84.7919H101.585V97.1064H113.916V84.7919Z" fill="#0CBB7E"/>
<path d="M130.772 84.7919H118.441V97.1064H130.772V84.7919Z" fill="#0CBB7E"/>
<path opacity="0.7" d="M147.623 84.7919H135.292V97.1064H147.623V84.7919Z" fill="#0CBB7E"/>
<path opacity="0.7" d="M164.479 84.7919H152.148V97.1064H164.479V84.7919Z" fill="#0CBB7E"/>
<path opacity="0.2" d="M181.33 84.7919H168.999V97.1064H181.33V84.7919Z" fill="#0CBB7E"/>
<path opacity="0.4" d="M198.186 84.7919H185.854V97.1064H198.186V84.7919Z" fill="#0CBB7E"/>
<path opacity="0.4" d="M215.041 84.7919H202.71V97.1064H215.041V84.7919Z" fill="#0CBB7E"/>
<path d="M231.893 84.7919H219.561V97.1064H231.893V84.7919Z" fill="#0CBB7E"/>
<path opacity="0.2" d="M248.748 84.7919H236.417V97.1064H248.748V84.7919Z" fill="#0CBB7E"/>
<path opacity="0.4" d="M265.599 84.7919H253.268V97.1064H265.599V84.7919Z" fill="#0CBB7E"/>
<path d="M282.455 84.7919H270.124V97.1064H282.455V84.7919Z" fill="#0CBB7E"/>
<path opacity="0.2" d="M299.311 84.7919H286.98V97.1064H299.311V84.7919Z" fill="#0CBB7E"/>
<path opacity="0.4" d="M316.162 84.7919H303.831V97.1064H316.162V84.7919Z" fill="#0CBB7E"/>
<path opacity="0.2" d="M333.018 84.7919H320.687V97.1064H333.018V84.7919Z" fill="#0CBB7E"/>
<path d="M349.874 84.7919H337.543V97.1064H349.874V84.7919Z" fill="#0CBB7E"/>
<path opacity="0.2" d="M366.725 84.7919H354.394V97.1064H366.725V84.7919Z" fill="#0CBB7E"/>
<path opacity="0.7" d="M383.581 84.7919H371.249V97.1064H383.581V84.7919Z" fill="#0CBB7E"/>
<path opacity="0.7" d="M400.432 84.7919H388.101V97.1064H400.432V84.7919Z" fill="#0CBB7E"/>
<path opacity="0.4" d="M417.288 84.7919H404.956V97.1064H417.288V84.7919Z" fill="#0CBB7E"/>
<path opacity="0.2" d="M434.143 84.7919H421.812V97.1064H434.143V84.7919Z" fill="#0CBB7E"/>
<path d="M450.995 84.7919H438.663V97.1064H450.995V84.7919Z" fill="#0CBB7E"/>
<path d="M467.851 84.7919H455.519V97.1064H467.851V84.7919Z" fill="#0CBB7E"/>
<path d="M484.702 84.7919H472.371V97.1064H484.702V84.7919Z" fill="#0CBB7E"/>
<path opacity="0.2" d="M63.3533 100.389H51.0219V112.703H63.3533V100.389Z" fill="#0CBB7E"/>
<path opacity="0.2" d="M80.2091 100.389H67.8778V112.703H80.2091V100.389Z" fill="#0CBB7E"/>
<path opacity="0.2" d="M97.0602 100.389H84.7289V112.703H97.0602V100.389Z" fill="#0CBB7E"/>
<path opacity="0.2" d="M113.916 100.389H101.585V112.703H113.916V100.389Z" fill="#0CBB7E"/>
<path d="M130.772 100.389H118.441V112.703H130.772V100.389Z" fill="#0CBB7E"/>
<path opacity="0.7" d="M147.623 100.389H135.292V112.703H147.623V100.389Z" fill="#0CBB7E"/>
<path opacity="0.7" d="M164.479 100.389H152.148V112.703H164.479V100.389Z" fill="#0CBB7E"/>
<path opacity="0.2" d="M181.33 100.389H168.999V112.703H181.33V100.389Z" fill="#0CBB7E"/>
<path opacity="0.2" d="M198.186 100.389H185.854V112.703H198.186V100.389Z" fill="#0CBB7E"/>
<path opacity="0.4" d="M215.041 100.389H202.71V112.703H215.041V100.389Z" fill="#0CBB7E"/>
<path opacity="0.4" d="M231.893 100.389H219.561V112.703H231.893V100.389Z" fill="#0CBB7E"/>
<path d="M248.748 100.389H236.417V112.703H248.748V100.389Z" fill="#0CBB7E"/>
<path opacity="0.2" d="M265.599 100.389H253.268V112.703H265.599V100.389Z" fill="#0CBB7E"/>
<path opacity="0.4" d="M282.455 100.389H270.124V112.703H282.455V100.389Z" fill="#0CBB7E"/>
<path opacity="0.4" d="M299.311 100.389H286.98V112.703H299.311V100.389Z" fill="#0CBB7E"/>
<path opacity="0.4" d="M316.162 100.389H303.831V112.703H316.162V100.389Z" fill="#0CBB7E"/>
<path opacity="0.4" d="M333.018 100.389H320.687V112.703H333.018V100.389Z" fill="#0CBB7E"/>
<path opacity="0.2" d="M349.874 100.389H337.543V112.703H349.874V100.389Z" fill="#0CBB7E"/>
<path opacity="0.2" d="M366.725 100.389H354.394V112.703H366.725V100.389Z" fill="#0CBB7E"/>
<path opacity="0.2" d="M383.581 100.389H371.249V112.703H383.581V100.389Z" fill="#0CBB7E"/>
<path opacity="0.2" d="M400.432 100.389H388.101V112.703H400.432V100.389Z" fill="#0CBB7E"/>
<path opacity="0.7" d="M417.288 100.389H404.956V112.703H417.288V100.389Z" fill="#0CBB7E"/>
<path opacity="0.7" d="M434.143 100.389H421.812V112.703H434.143V100.389Z" fill="#0CBB7E"/>
<path opacity="0.4" d="M450.995 100.389H438.663V112.703H450.995V100.389Z" fill="#0CBB7E"/>
<path opacity="0.2" d="M467.851 100.389H455.519V112.703H467.851V100.389Z" fill="#0CBB7E"/>
<path d="M484.702 100.389H472.371V112.703H484.702V100.389Z" fill="#0CBB7E"/>
<path opacity="0.2" d="M63.3533 115.991H51.0219V128.305H63.3533V115.991Z" fill="#0CBB7E"/>
<path opacity="0.2" d="M80.2091 115.991H67.8778V128.305H80.2091V115.991Z" fill="#0CBB7E"/>
<path opacity="0.4" d="M97.0602 115.991H84.7289V128.305H97.0602V115.991Z" fill="#0CBB7E"/>
<path opacity="0.2" d="M113.916 115.991H101.585V128.305H113.916V115.991Z" fill="#0CBB7E"/>
<path opacity="0.2" d="M130.772 115.991H118.441V128.305H130.772V115.991Z" fill="#0CBB7E"/>
<path opacity="0.7" d="M147.623 115.991H135.292V128.305H147.623V115.991Z" fill="#0CBB7E"/>
<path opacity="0.7" d="M164.479 115.991H152.148V128.305H164.479V115.991Z" fill="#0CBB7E"/>
<path opacity="0.2" d="M181.33 115.991H168.999V128.305H181.33V115.991Z" fill="#0CBB7E"/>
<path opacity="0.2" d="M198.186 115.991H185.854V128.305H198.186V115.991Z" fill="#0CBB7E"/>
<path opacity="0.4" d="M215.041 115.991H202.71V128.305H215.041V115.991Z" fill="#0CBB7E"/>
<path d="M231.893 115.991H219.561V128.305H231.893V115.991Z" fill="#0CBB7E"/>
<path opacity="0.2" d="M248.748 115.991H236.417V128.305H248.748V115.991Z" fill="#0CBB7E"/>
<path d="M265.599 115.991H253.268V128.305H265.599V115.991Z" fill="#0CBB7E"/>
<path d="M282.455 115.991H270.124V128.305H282.455V115.991Z" fill="#0CBB7E"/>
<path d="M299.311 115.991H286.98V128.305H299.311V115.991Z" fill="#0CBB7E"/>
<path opacity="0.2" d="M316.162 115.991H303.831V128.305H316.162V115.991Z" fill="#0CBB7E"/>
<path d="M333.018 115.991H320.687V128.305H333.018V115.991Z" fill="#0CBB7E"/>
<path opacity="0.2" d="M349.874 115.991H337.543V128.305H349.874V115.991Z" fill="#0CBB7E"/>
<path opacity="0.2" d="M366.725 115.991H354.394V128.305H366.725V115.991Z" fill="#0CBB7E"/>
<path opacity="0.2" d="M383.581 115.991H371.249V128.305H383.581V115.991Z" fill="#0CBB7E"/>
<path opacity="0.2" d="M400.432 115.991H388.101V128.305H400.432V115.991Z" fill="#0CBB7E"/>
<path opacity="0.2" d="M417.288 115.991H404.956V128.305H417.288V115.991Z" fill="#0CBB7E"/>
<path opacity="0.7" d="M434.143 115.991H421.812V128.305H434.143V115.991Z" fill="#0CBB7E"/>
<path opacity="0.2" d="M450.995 115.991H438.663V128.305H450.995V115.991Z" fill="#0CBB7E"/>
<path opacity="0.2" d="M467.851 115.991H455.519V128.305H467.851V115.991Z" fill="#0CBB7E"/>
<path d="M484.702 115.991H472.371V128.305H484.702V115.991Z" fill="#0CBB7E"/>
<path opacity="0.2" d="M63.3533 131.588H51.0219V143.902H63.3533V131.588Z" fill="#0CBB7E"/>
<path opacity="0.2" d="M80.2091 131.588H67.8778V143.902H80.2091V131.588Z" fill="#0CBB7E"/>
<path opacity="0.2" d="M97.0602 131.588H84.7289V143.902H97.0602V131.588Z" fill="#0CBB7E"/>
<path opacity="0.4" d="M113.916 131.588H101.585V143.902H113.916V131.588Z" fill="#0CBB7E"/>
<path opacity="0.2" d="M130.772 131.588H118.441V143.902H130.772V131.588Z" fill="#0CBB7E"/>
<path opacity="0.2" d="M147.623 131.588H135.292V143.902H147.623V131.588Z" fill="#0CBB7E"/>
<path opacity="0.7" d="M164.479 131.588H152.148V143.902H164.479V131.588Z" fill="#0CBB7E"/>
<path opacity="0.2" d="M181.33 131.588H168.999V143.902H181.33V131.588Z" fill="#0CBB7E"/>
<path opacity="0.2" d="M198.186 131.588H185.854V143.902H198.186V131.588Z" fill="#0CBB7E"/>
<path opacity="0.2" d="M215.041 131.588H202.71V143.902H215.041V131.588Z" fill="#0CBB7E"/>
<path d="M231.893 131.588H219.561V143.902H231.893V131.588Z" fill="#0CBB7E"/>
<path opacity="0.2" d="M248.748 131.588H236.417V143.902H248.748V131.588Z" fill="#0CBB7E"/>
<path d="M265.599 131.588H253.268V143.902H265.599V131.588Z" fill="#0CBB7E"/>
<path d="M282.455 131.588H270.124V143.902H282.455V131.588Z" fill="#0CBB7E"/>
<path opacity="0.2" d="M299.311 131.588H286.98V143.902H299.311V131.588Z" fill="#0CBB7E"/>
<path opacity="0.2" d="M316.162 131.588H303.831V143.902H316.162V131.588Z" fill="#0CBB7E"/>
<path opacity="0.2" d="M333.018 131.588H320.687V143.902H333.018V131.588Z" fill="#0CBB7E"/>
<path opacity="0.2" d="M349.874 131.588H337.543V143.902H349.874V131.588Z" fill="#0CBB7E"/>
<path opacity="0.2" d="M366.725 131.588H354.394V143.902H366.725V131.588Z" fill="#0CBB7E"/>
<path opacity="0.2" d="M383.581 131.588H371.249V143.902H383.581V131.588Z" fill="#0CBB7E"/>
<path opacity="0.2" d="M400.432 131.588H388.101V143.902H400.432V131.588Z" fill="#0CBB7E"/>
<path opacity="0.2" d="M417.288 131.588H404.956V143.902H417.288V131.588Z" fill="#0CBB7E"/>
<path opacity="0.2" d="M434.143 131.588H421.812V143.902H434.143V131.588Z" fill="#0CBB7E"/>
<path opacity="0.2" d="M450.995 131.588H438.663V143.902H450.995V131.588Z" fill="#0CBB7E"/>
<path opacity="0.4" d="M467.851 131.588H455.519V143.902H467.851V131.588Z" fill="#0CBB7E"/>
<path d="M484.702 131.588H472.371V143.902H484.702V131.588Z" fill="#0CBB7E"/>
<path opacity="0.7" d="M63.3533 147.19H51.0219V159.504H63.3533V147.19Z" fill="#0CBB7E"/>
<path opacity="0.7" d="M80.2091 147.19H67.8778V159.504H80.2091V147.19Z" fill="#0CBB7E"/>
<path opacity="0.7" d="M97.0602 147.19H84.7289V159.504H97.0602V147.19Z" fill="#0CBB7E"/>
<path opacity="0.7" d="M113.916 147.19H101.585V159.504H113.916V147.19Z" fill="#0CBB7E"/>
<path opacity="0.7" d="M130.772 147.19H118.441V159.504H130.772V147.19Z" fill="#0CBB7E"/>
<path opacity="0.2" d="M147.623 147.19H135.292V159.504H147.623V147.19Z" fill="#0CBB7E"/>
<path opacity="0.2" d="M164.479 147.19H152.148V159.504H164.479V147.19Z" fill="#0CBB7E"/>
<path opacity="0.2" d="M181.33 147.19H168.999V159.504H181.33V147.19Z" fill="#0CBB7E"/>
<path opacity="0.2" d="M198.186 147.19H185.854V159.504H198.186V147.19Z" fill="#0CBB7E"/>
<path opacity="0.2" d="M215.041 147.19H202.71V159.504H215.041V147.19Z" fill="#0CBB7E"/>
<path opacity="0.2" d="M231.893 147.19H219.561V159.504H231.893V147.19Z" fill="#0CBB7E"/>
<path d="M248.748 147.19H236.417V159.504H248.748V147.19Z" fill="#0CBB7E"/>
<path opacity="0.2" d="M265.599 147.19H253.268V159.504H265.599V147.19Z" fill="#0CBB7E"/>
<path opacity="0.2" d="M282.455 147.19H270.124V159.504H282.455V147.19Z" fill="#0CBB7E"/>
<path opacity="0.2" d="M299.311 147.19H286.98V159.504H299.311V147.19Z" fill="#0CBB7E"/>
<path d="M316.162 147.19H303.831V159.504H316.162V147.19Z" fill="#0CBB7E"/>
<path opacity="0.2" d="M333.018 147.19H320.687V159.504H333.018V147.19Z" fill="#0CBB7E"/>
<path opacity="0.2" d="M349.874 147.19H337.543V159.504H349.874V147.19Z" fill="#0CBB7E"/>
<path opacity="0.2" d="M366.725 147.19H354.394V159.504H366.725V147.19Z" fill="#0CBB7E"/>
<path opacity="0.2" d="M383.581 147.19H371.249V159.504H383.581V147.19Z" fill="#0CBB7E"/>
<path opacity="0.2" d="M400.432 147.19H388.101V159.504H400.432V147.19Z" fill="#0CBB7E"/>
<path opacity="0.2" d="M417.288 147.19H404.956V159.504H417.288V147.19Z" fill="#0CBB7E"/>
<path opacity="0.2" d="M434.143 147.19H421.812V159.504H434.143V147.19Z" fill="#0CBB7E"/>
<path opacity="0.2" d="M450.995 147.19H438.663V159.504H450.995V147.19Z" fill="#0CBB7E"/>
<path opacity="0.2" d="M467.851 147.19H455.519V159.504H467.851V147.19Z" fill="#0CBB7E"/>
<path d="M484.702 147.19H472.371V159.504H484.702V147.19Z" fill="#0CBB7E"/>
<path d="M355.061 192.494C364.37 192.494 371.917 184.958 371.917 175.661C371.917 166.365 364.37 158.828 355.061 158.828C345.752 158.828 338.205 166.365 338.205 175.661C338.205 184.958 345.752 192.494 355.061 192.494Z" fill="#767D9F"/>
<path d="M354.186 154.247C355.868 161.578 357.296 168.964 358.469 176.405C358.821 178.616 359.136 180.947 358.333 183.037C357.661 184.78 356.293 186.141 355.22 187.667C354.147 189.192 353.335 191.147 353.988 192.895C354.64 194.642 356.545 195.598 358.362 196.09C363.563 197.49 369.108 196.472 374.285 194.956C376.629 194.353 378.877 193.424 380.961 192.195C383.155 190.805 384.954 188.874 386.607 186.885C394.153 177.747 399.093 166.779 403.743 155.879C400.755 156.15 397.745 155.708 394.962 154.588C392.179 153.469 389.703 151.704 387.738 149.439C385.833 147.204 384.436 144.091 385.51 141.358C382.363 143.082 378.626 143.198 375.237 144.375C373.136 145.177 371.113 146.171 369.195 147.344C366.881 148.68 364.58 150.041 362.292 151.428C359.677 153.002 357.226 154.402 354.186 154.247Z" fill="#FBBEBE"/>
<path d="M389.44 166.885C386.486 172.625 382.643 178.143 377.157 181.56C371.67 184.978 364.284 185.905 358.788 182.526C356.081 180.875 354.031 178.365 351.667 176.25C349.304 174.136 346.35 172.326 343.174 172.601C339.674 172.905 336.934 175.632 334.589 178.244C331.031 182.212 327.594 186.349 325.076 191.046C320.242 200.073 319.096 210.626 319.309 220.859C319.522 231.093 321.006 241.274 321.04 251.508C321.088 264.098 318.951 276.586 316.791 288.987C336.658 286.545 356.55 291.884 376.461 293.906C389.203 295.215 402.042 295.186 414.851 295.152C417.104 295.152 419.502 295.094 421.377 293.849C422.524 293.013 423.451 291.914 424.079 290.643C425.849 287.385 426.559 283.668 427.052 279.994C428.304 270.716 428.343 261.322 428.377 251.957C428.464 229.269 428.546 206.498 425.66 183.988C424.95 178.451 424.041 172.886 421.914 167.706C419.787 162.526 416.316 157.762 411.463 154.986C408.345 153.2 401.118 150.091 397.445 151.892C393.321 153.9 391.417 163.043 389.44 166.885Z" fill="#767D9F"/>
<path d="M390.909 230.953C390.16 216.954 387.11 202.014 393.602 189.588C395.197 186.537 389.474 182.728 391.243 179.774C393.402 176.172 395.039 172.283 396.106 168.222C396.473 166.827 396.768 165.35 396.42 163.95C395.777 161.397 393.249 159.876 391.103 158.322C388.734 156.603 387.516 151.365 386.752 148.532C385.988 145.698 392.828 149.111 395.579 148.102C399.398 146.707 404.251 147.586 408.06 149C410.187 149.782 412.497 149.85 414.764 149.908C419.168 150.023 423.586 150.134 427.956 149.594C429.919 149.348 431.886 148.976 433.858 149.087C438.89 149.372 443.265 152.809 446.243 156.873C449.22 160.938 451.115 165.674 453.556 170.076C455.592 173.745 458.018 177.211 459.753 181.029C461.291 184.408 462.262 188.038 463.224 191.649L465.704 200.913C466.138 202.238 466.344 203.627 466.313 205.021C466.187 206.503 465.53 207.884 464.863 209.201C462.34 214.086 459.316 218.695 455.838 222.954C450.622 229.341 444.29 235.1 441.191 242.746C439.983 245.725 439.311 248.892 438.697 252.049C436.222 264.675 434.463 277.432 433.428 290.257C427.78 287.647 421.859 285.67 415.775 284.363C412.742 283.715 409.676 283.231 406.59 282.914C403.888 282.635 400.403 283.166 397.831 282.432C393.529 281.21 393.055 273.945 392.403 270.141C391.359 264.083 391.151 257.919 391.112 251.798C391.064 244.837 391.281 237.89 390.909 230.953Z" fill="#4C4981"/>
<path d="M296.43 204.775C298.465 216.36 300.708 227.98 305.131 238.865C305.02 238.972 304.909 239.068 304.798 239.165C304.406 239.498 304 239.812 303.575 240.13C302.584 240.825 301.496 241.414 300.674 242.322C300.363 242.669 300.118 243.07 299.949 243.504C299.797 243.844 299.719 244.212 299.719 244.583C299.719 244.955 299.797 245.323 299.949 245.662C297.643 246.681 294.965 246.367 292.379 246.27C290.151 246.188 287.99 246.27 286.202 247.492C283.717 249.201 282.968 252.483 282.567 255.467C282.418 256.554 282.291 257.644 282.185 258.735C282.082 259.748 281.998 260.765 281.933 261.785C281.714 265.16 281.684 268.545 281.841 271.923C281.867 272.541 281.901 273.159 281.943 273.777C274.044 273.588 266.847 269.475 260.036 265.478C258.479 264.566 256.874 263.605 255.864 262.099C254.933 260.62 254.539 258.867 254.747 257.132C254.747 256.886 254.791 256.649 254.825 256.398C255.041 254.966 255.412 253.561 255.932 252.208C258.063 246.446 261.204 241.109 265.208 236.447C266.939 234.429 268.887 232.455 269.694 229.92C270.047 228.815 270.177 227.642 270.535 226.541C272.14 221.772 277.931 219.517 279.913 214.888C280.396 213.783 280.618 212.571 281.218 211.509C281.757 210.626 282.454 209.849 283.272 209.216C283.625 208.921 283.993 208.637 284.355 208.352C287.752 205.694 291.024 202.886 294.173 199.928C294.759 199.378 295.339 198.821 295.913 198.258C295.836 200.443 296.01 202.629 296.43 204.775Z" fill="#4C4981"/>
<path d="M345.142 170.51C344.446 171.244 343.692 171.935 342.952 172.62L342.754 172.799L341.971 173.523C340.549 174.748 339.319 176.178 338.321 177.766L338.239 177.901C335.774 182.308 336.687 187.734 337.374 192.74C338.225 198.979 338.608 205.272 338.519 211.567C338.394 220.256 337.369 228.887 337.349 237.567C337.349 239.536 337.393 241.501 337.48 243.471C337.62 246.671 337.862 249.867 338.152 253.062C338.466 256.567 338.843 260.067 339.196 263.567C339.476 266.275 339.742 268.978 339.965 271.681C340.076 273.081 340.182 274.476 340.269 275.876C340.371 277.518 340.453 279.164 340.501 280.805C340.535 281.848 340.554 282.886 340.554 283.928C340.554 284.522 340.554 285.111 340.554 285.7C340.554 286.83 340.524 287.956 340.462 289.079C340.398 290.524 340.3 291.972 340.168 293.424C340.018 295.002 339.752 296.726 338.64 297.836C338.572 297.903 338.5 297.966 338.427 298.029L336.861 297.836C326.065 296.545 315.165 296.351 304.329 297.257C304.566 295.625 304.783 293.998 304.996 292.362C305.093 291.589 305.189 290.812 305.281 290.035C305.387 289.147 305.489 288.258 305.586 287.37C305.697 286.405 305.798 285.439 305.895 284.474C306.146 281.986 306.367 279.497 306.557 277.006C306.838 273.373 307.05 269.733 307.195 266.087C307.266 264.346 307.321 262.603 307.36 260.859C307.415 258.696 307.44 256.532 307.437 254.366C307.437 252.261 307.419 250.153 307.384 248.042C307.384 247.347 307.355 246.652 307.297 245.961C307.255 245.34 307.17 244.722 307.041 244.113C306.682 242.707 306.196 241.337 305.591 240.019C305.484 239.768 305.383 239.536 305.281 239.271C305.223 239.14 305.17 239.005 305.117 238.875C307.901 236.399 309.883 233.082 311.788 229.819C314.877 224.562 318.038 219.073 318.555 213.001C319.072 206.928 316.051 200.107 310.241 198.253C308.66 197.77 306.988 197.635 305.359 197.35C303.821 197.08 300.616 196.467 298.838 195.366C297.871 196.358 296.904 197.331 295.937 198.287C295.996 196.829 296.353 195.398 296.986 194.082L297.673 194.116C297.617 193.961 297.59 193.798 297.595 193.633C297.595 193.117 297.953 192.533 298.717 191.886C300.993 189.955 304.575 189.525 306.011 186.914C306.61 185.828 306.712 184.534 307.195 183.395C308.583 180.146 312.566 178.949 314.964 176.352C317.361 173.754 317.961 170.076 319.899 167.18C321.347 165.065 323.355 163.393 325.7 162.352C325.893 162.261 326.091 162.169 326.289 162.087C330.302 160.373 335.068 159.982 339.225 159.992C340.84 159.992 345.026 160.04 347.075 160.856C347.408 160.974 347.712 161.16 347.97 161.401C350.154 163.776 346.756 168.792 345.142 170.51Z" fill="#4C4981"/>
<path d="M297.151 193.744C300.885 192.622 304.805 192.252 308.684 192.655C312.562 193.059 316.322 194.228 319.744 196.095C323.225 198.026 326.347 200.72 328.262 204.196C331.138 209.409 331.012 215.694 330.809 221.646C330.708 224.625 330.577 227.709 329.262 230.384C327.74 233.478 324.868 235.602 321.939 237.34C320.104 238.509 318.093 239.378 315.984 239.913C312.735 240.618 309.361 240.019 306.089 239.43C302.531 238.774 298.712 237.982 296.242 235.337C294.792 233.802 293.999 231.808 293.216 229.858C292.091 227.042 290.963 224.229 289.832 221.419C287.874 216.539 287.212 212.479 289.798 207.724C290.973 205.557 292.408 203.529 293.569 201.348C294.149 200.237 296.227 194.029 297.151 193.744Z" fill="#4C4981"/>
<path d="M500.31 277.194V291.628C490.395 295.742 479.758 297.842 469.021 297.807H338.655C338.587 297.875 338.514 297.937 338.442 298L336.876 297.807H104.978C85.5217 297.807 67.4911 292.564 52.7042 283.634V261.597L164.232 248.742H164.319L229.268 254.236L246.075 255.684L254.805 256.422L272.875 257.953L282.17 258.74L295.705 259.888L297.61 260.048L307.365 260.873L320.6 261.959L339.21 263.533L370.235 266.164L392.06 268.013L427.898 271.049L434.714 271.624L435.449 271.686L436.087 271.739L445.088 272.502L454.968 273.342L456.114 273.439L500.31 277.194Z" fill="#504F60"/>
<path d="M369.311 276.663L229.543 252.841L224.125 280.207L288.193 287.867L307.92 290.334L362.186 279.661L369.311 276.663Z" fill="#9C9CA1"/>
<path d="M296.962 288.963L366.986 275.818C367.336 275.751 367.697 275.763 368.043 275.851C368.388 275.94 368.71 276.104 368.984 276.332C369.259 276.559 369.479 276.845 369.63 277.167C369.781 277.49 369.859 277.842 369.857 278.198C369.859 278.763 369.662 279.311 369.301 279.746C368.939 280.181 368.437 280.475 367.88 280.578L299.495 293.366L296.962 288.963Z" fill="#9C9CA1"/>
<path d="M327.338 247.627C329.519 247.424 331.728 247.081 333.69 246.116C336.107 244.914 337.988 242.843 340.226 241.318C345.147 237.939 351.73 237.485 357.372 239.425C363.013 241.366 367.721 245.522 371.018 250.485C373.208 253.791 374.851 258.01 373.304 261.66C372.774 262.775 372.104 263.82 371.313 264.769L367.281 270.03C366.515 271.137 365.594 272.127 364.545 272.97C363.037 274.066 361.161 274.515 359.315 274.785C354.408 275.5 349.415 275.094 344.47 275.423C335.977 275.987 327.682 278.72 319.169 278.628C314.277 278.575 309.448 277.59 304.667 276.605L283.509 272.261C279.826 271.508 275.664 270.407 273.928 267.071C273.15 265.57 273.005 263.832 272.913 262.143C272.662 257.489 272.913 252.314 276.142 248.959C279.178 245.812 283.978 244.817 287.604 242.491C292.041 239.638 293.506 240.56 298.185 242.703C307.314 246.832 317.358 248.528 327.338 247.627Z" fill="#FBBEBE"/>
<path opacity="0.05" d="M327.338 247.627C329.519 247.424 331.728 247.081 333.69 246.116C336.107 244.914 337.988 242.843 340.226 241.318C345.147 237.939 351.73 237.485 357.372 239.425C363.013 241.366 367.721 245.522 371.018 250.485C373.208 253.791 374.851 258.01 373.304 261.66C372.774 262.775 372.104 263.82 371.313 264.769L367.281 270.03C366.515 271.137 365.594 272.127 364.545 272.97C363.037 274.066 361.161 274.515 359.315 274.785C354.408 275.5 349.415 275.094 344.47 275.423C335.977 275.987 327.682 278.72 319.169 278.628C314.277 278.575 309.448 277.59 304.667 276.605L283.509 272.261C279.826 271.508 275.664 270.407 273.928 267.071C273.15 265.57 273.005 263.832 272.913 262.143C272.662 257.489 272.913 252.314 276.142 248.959C279.178 245.812 283.978 244.817 287.604 242.491C292.041 239.638 293.506 240.56 298.185 242.703C307.314 246.832 317.358 248.528 327.338 247.627Z" fill="black"/>
<path d="M412.304 241.009C406.368 243.302 400.398 245.604 394.182 246.97C383.76 249.263 372.854 248.901 362.515 251.523C357.052 252.913 351.624 255.153 346.012 254.699C343.503 254.496 341.081 253.734 338.64 253.154C324.926 249.775 309.337 250.871 298.199 259.56C294.39 262.529 291.272 266.231 288.445 270.18C287.84 271.033 287.431 272.009 287.247 273.038C287.063 274.067 287.11 275.124 287.383 276.133C287.656 277.142 288.148 278.079 288.826 278.875C289.503 279.672 290.349 280.31 291.301 280.742C295.633 282.731 300.272 283.967 305.02 284.397C311.367 284.957 317.743 284.059 324.056 283.161C333.424 281.833 342.797 280.501 352.141 279.009C355.496 278.473 358.851 277.918 362.225 277.494C386.505 274.428 411.226 278.155 435.57 275.596C438.03 275.336 440.534 274.998 442.772 273.95C448.438 271.295 451.241 264.296 450.071 258.146C448.902 251.996 444.387 246.884 438.953 243.746C434.4 241.105 429.489 240.038 424.418 238.919C419.71 237.823 416.838 239.271 412.304 241.009Z" fill="#FBBEBE"/>
<path opacity="0.1" d="M464.38 204.244C467.057 207.748 467.628 212.45 467.338 216.838C467.048 221.226 466.004 225.566 465.849 229.973C465.636 236.017 467.096 242.042 466.85 248.066C466.676 252.281 465.675 256.413 464.491 260.458C463.094 265.232 461.073 270.364 456.66 272.657C450.801 275.703 438.513 273.989 432.35 276.374C432.911 272.884 438.286 267.829 438.847 264.339C439.233 261.926 439.625 259.444 439.209 257.026C438.678 253.941 436.865 251.204 434.714 248.926C431.291 245.3 426.825 242.573 421.918 241.685C417.012 240.796 405 241.525 401.075 244.62C400.591 241.424 409.582 238.344 412.744 237.654C414.319 237.301 416.127 237.499 417.389 236.5C419.806 234.608 418.051 230.838 418.167 227.811C418.259 225.397 419.671 223.186 419.956 220.773C420.439 216.911 417.916 212.976 418.907 209.187C419.274 207.787 420.091 206.556 420.657 205.224C422.378 201.145 421.624 196.491 420.705 192.156C420.135 189.434 419.579 186.363 421.097 184.041C422.503 181.874 426.496 189.593 429.053 189.236C437.498 188.053 445.141 181.802 451.961 186.919C455.437 189.525 455.891 192.229 457.278 195.95C458.627 199.494 462.122 201.309 464.38 204.244Z" fill="black"/>
<path d="M465.83 204.244C468.508 207.748 469.078 212.45 468.788 216.838C468.498 221.226 467.454 225.566 467.299 229.973C467.087 236.017 468.547 242.042 468.3 248.066C468.126 252.28 467.125 256.413 465.941 260.458C464.544 265.232 462.523 270.364 458.11 272.657C452.251 275.703 439.964 273.989 433.8 276.374C434.361 272.883 439.736 267.829 440.297 264.339C440.684 261.925 441.075 259.444 440.66 257.026C440.128 253.941 438.315 251.204 436.164 248.925C432.742 245.3 428.275 242.573 423.369 241.684C418.462 240.796 406.45 241.525 402.525 244.62C402.042 241.424 411.033 238.344 414.194 237.654C415.77 237.301 417.578 237.499 418.839 236.5C421.256 234.608 419.502 230.838 419.618 227.811C419.71 225.397 421.121 223.186 421.406 220.773C421.89 216.911 419.366 212.976 420.357 209.187C420.725 207.787 421.542 206.556 422.107 205.224C423.828 201.145 423.074 196.491 422.155 192.156C421.585 189.434 421.029 186.363 422.547 184.041C423.954 181.874 426.704 181.053 429.261 180.691C437.823 179.535 446.498 181.77 453.431 186.919C456.906 189.525 457.361 192.229 458.748 195.95C460.077 199.494 463.572 201.309 465.83 204.244Z" fill="#4C4981"/>
<path d="M145.984 181.372L172.266 278.373C172.589 279.561 173.266 280.623 174.208 281.417C175.151 282.212 176.313 282.7 177.54 282.819L295.836 294.168C296.8 294.26 297.772 294.121 298.671 293.762C299.57 293.402 300.37 292.832 301.004 292.101C301.637 291.369 302.085 290.496 302.312 289.556C302.538 288.615 302.535 287.634 302.303 286.695L273.522 169.69C273.18 168.299 272.355 167.075 271.193 166.234C270.032 165.394 268.61 164.991 267.18 165.099L151.364 173.75C150.475 173.819 149.612 174.083 148.837 174.523C148.062 174.964 147.393 175.569 146.879 176.297C146.365 177.025 146.019 177.858 145.864 178.735C145.709 179.612 145.75 180.513 145.984 181.372Z" fill="#3F3D56"/>
<path d="M380.482 200.3C387.664 200.3 393.486 194.41 393.486 187.145C393.486 179.88 387.664 173.991 380.482 173.991C373.301 173.991 367.479 179.88 367.479 187.145C367.479 194.41 373.301 200.3 380.482 200.3Z" fill="white"/>
<path d="M391.161 163.149C391.161 163.149 393.902 171.288 385.814 174.71L384.78 176.516L389.846 181.507C389.846 181.507 396.091 170.129 395.415 166.089C395.415 166.089 394.448 161.985 391.161 163.149Z" fill="white"/>
<path d="M381.976 200.3C388.901 200.3 394.515 194.694 394.515 187.778C394.515 180.862 388.901 175.256 381.976 175.256C375.051 175.256 369.437 180.862 369.437 187.778C369.437 194.694 375.051 200.3 381.976 200.3Z" fill="#0CBB7E"/>
<path d="M395.477 167.938L393.486 164.655L390.585 164.245C391.204 153.436 388.395 150.216 388.395 150.216L387.743 150.154L384.901 149.879L379.554 144.337V142.763C387.066 143.656 391.218 147.219 393.461 151.394C397.425 158.722 395.477 167.938 395.477 167.938Z" fill="#0CBB7E"/>
<path opacity="0.1" d="M387.767 148.165V150.154L384.925 149.879L379.579 144.337C379.579 144.337 387.849 146.186 387.767 148.165Z" fill="black" stroke="#4C4981" stroke-miterlimit="10"/>
<path opacity="0.1" d="M395.477 167.938L393.486 164.655V151.414C397.425 158.722 395.477 167.938 395.477 167.938Z" fill="black" stroke="#4C4981" stroke-miterlimit="10"/>
<path d="M358.805 192.925C362.142 191.002 361.998 184.516 358.485 178.439C354.972 172.362 349.419 168.995 346.083 170.919C342.746 172.842 342.89 179.328 346.403 185.405C349.917 191.482 355.469 194.849 358.805 192.925Z" fill="white"/>
<path d="M354.326 180.86C357.84 186.938 362.152 190.998 358.817 192.928C355.481 194.859 345.765 193.894 342.251 187.812C338.736 181.729 341.927 173.33 345.262 171.399C348.598 169.468 350.807 174.768 354.326 180.86Z" fill="#0CBB7E"/>
<path opacity="0.1" d="M385.616 137.077C385.616 156.497 372.308 175.212 352.861 175.212C343.522 175.212 334.565 171.507 327.961 164.912C321.357 158.317 317.646 149.372 317.646 140.045C317.646 130.718 321.357 121.774 327.961 115.178C334.565 108.583 343.522 104.878 352.861 104.878C372.308 104.898 385.616 117.651 385.616 137.077Z" fill="black"/>
<path d="M352.861 174.266C372.31 174.266 388.076 158.521 388.076 139.099C388.076 119.677 372.31 103.932 352.861 103.932C333.413 103.932 317.646 119.677 317.646 139.099C317.646 158.521 333.413 174.266 352.861 174.266Z" fill="#FBBEBE"/>
<path d="M349.768 123.517C353.959 125.056 356.439 129.382 360.199 131.791C365.517 135.17 372.439 134.296 378.51 132.626C381.894 131.704 385.433 130.579 388.763 131.602C389.253 131.819 389.794 131.896 390.325 131.824C391.05 131.617 391.407 130.815 391.644 130.101C395.763 117.84 393.911 103.951 387.695 92.6072C386.09 89.6819 384.166 86.8531 381.517 84.8208C379.429 83.2229 376.973 82.1754 374.498 81.2824C369.975 79.6602 365.297 78.5068 360.538 77.8405C359.697 77.688 358.839 77.6603 357.99 77.7584C356.825 77.9467 355.781 78.5742 354.742 79.1342C350.291 81.517 345.355 82.8559 340.308 83.0492C333.54 83.305 325.806 81.712 320.59 86.0469C314.306 91.2459 315.872 101.388 311.797 108.446C309.1 113.114 303.899 116.502 303.043 121.817C302.82 123.442 302.924 125.094 303.348 126.678C305.339 134.856 313.267 141.189 321.717 141.339C323.014 141.438 324.314 141.172 325.468 140.571C326.224 140.056 326.892 139.422 327.445 138.694C332.98 132.148 339.312 119.674 349.768 123.517Z" fill="#444053"/>
<path opacity="0.1" d="M391.644 126.543C391.407 127.258 391.049 128.059 390.324 128.267C389.793 128.338 389.253 128.261 388.763 128.045C385.432 127.021 381.874 128.146 378.515 129.068C372.439 130.738 365.502 131.631 360.204 128.233C356.438 125.819 353.963 121.475 349.768 119.959C339.312 116.097 332.979 128.59 327.43 135.136C326.877 135.864 326.209 136.498 325.453 137.014C324.299 137.614 323 137.88 321.702 137.781C313.281 137.632 305.349 131.298 303.333 123.121C303.222 122.638 303.125 122.155 303.053 121.673C303.053 121.716 303.053 121.755 303.029 121.798C302.806 123.423 302.909 125.075 303.333 126.659C305.325 134.837 313.257 141.17 321.702 141.32C323 141.419 324.299 141.153 325.453 140.552C326.209 140.037 326.877 139.403 327.43 138.674C332.979 132.129 339.312 119.655 349.768 123.497C353.963 125.037 356.438 129.363 360.204 131.771C365.521 135.15 372.439 134.277 378.515 132.606C381.899 131.684 385.432 130.56 388.763 131.583C389.253 131.8 389.793 131.877 390.324 131.805C391.049 131.598 391.407 130.796 391.644 130.082C393.305 125.065 394.039 119.788 393.809 114.509C393.667 118.603 392.938 122.656 391.644 126.543Z" fill="black"/>
</g>
<defs>
<clipPath id="clip0_20_85">
<rect width="553" height="298" fill="white"/>
</clipPath>
</defs>
</svg>
