<svg width="616" height="365" viewBox="0 0 616 365" fill="none" xmlns="http://www.w3.org/2000/svg">
<path d="M293.789 281.71C292.521 281.71 291.282 282.114 290.228 282.87C289.174 283.627 288.352 284.702 287.867 285.96C287.382 287.218 287.255 288.602 287.502 289.938C287.75 291.273 288.36 292.5 289.256 293.463C290.153 294.425 291.295 295.081 292.538 295.347C293.782 295.612 295.07 295.476 296.241 294.955C297.413 294.434 298.414 293.551 299.118 292.419C299.822 291.287 300.198 289.956 300.198 288.595C300.198 286.769 299.523 285.018 298.321 283.727C297.119 282.436 295.489 281.71 293.789 281.71ZM293.789 292.831C293.008 292.831 292.246 292.583 291.597 292.117C290.949 291.652 290.443 290.99 290.144 290.216C289.846 289.442 289.768 288.59 289.92 287.768C290.072 286.946 290.448 286.191 290.999 285.599C291.551 285.006 292.254 284.603 293.019 284.439C293.784 284.276 294.577 284.36 295.298 284.68C296.019 285.001 296.635 285.544 297.068 286.241C297.502 286.938 297.733 287.757 297.733 288.595V288.595C297.733 289.718 297.317 290.796 296.578 291.59C295.838 292.385 294.835 292.831 293.789 292.831Z" fill="#E4E4E4"/>
<path d="M269.136 276.414H293.789V302.621C293.789 303.536 293.45 304.413 292.848 305.06C292.246 305.707 291.429 306.07 290.577 306.07H272.348C271.496 306.07 270.679 305.707 270.077 305.06C269.475 304.413 269.136 303.536 269.136 302.621V276.414Z" fill="#E4E4E4"/>
<path d="M184.177 307.532H615.418C615.578 307.516 615.726 307.446 615.833 307.335C615.941 307.224 616 307.081 616 306.933C616 306.784 615.941 306.641 615.833 306.53C615.726 306.42 615.578 306.35 615.418 306.333H184.177C184.017 306.35 183.869 306.42 183.762 306.53C183.655 306.641 183.595 306.784 183.595 306.933C183.595 307.081 183.655 307.224 183.762 307.335C183.869 307.446 184.017 307.516 184.177 307.532Z" fill="#CACACA"/>
<path d="M58.2982 126.095H196.475C197.208 126.094 197.911 125.778 198.429 125.216C198.948 124.655 199.239 123.893 199.24 123.099V94.8784H198.134V123.099C198.134 123.575 197.959 124.032 197.648 124.369C197.337 124.706 196.915 124.896 196.475 124.896H58.2982C57.8584 124.896 57.4368 124.706 57.1258 124.369C56.8148 124.032 56.6399 123.575 56.6394 123.099V94.6812H55.5335V123.099C55.5343 123.893 55.8259 124.655 56.3442 125.216C56.8625 125.778 57.5652 126.094 58.2982 126.095Z" fill="#E9F5F1"/>
<path d="M8.20832 94.2792L332.909 94.2792V95.4775L8.20832 95.4775V94.2792Z" fill="#E9F5F1"/>
<path d="M332.885 105.092C327.632 105.092 323.374 100.477 323.374 94.7848C323.374 89.0926 327.632 84.4781 332.885 84.4781C338.139 84.4781 342.397 89.0926 342.397 94.7848C342.397 100.477 338.139 105.092 332.885 105.092Z" fill="#0CBB7E"/>
<path d="M236.228 105.092C230.975 105.092 226.716 100.477 226.716 94.7848C226.716 89.0926 230.975 84.4781 236.228 84.4781C241.481 84.4781 245.74 89.0926 245.74 94.7848C245.74 100.477 241.481 105.092 236.228 105.092Z" fill="#0CBB7E"/>
<path d="M170.631 135.386C165.378 135.386 161.119 130.771 161.119 125.079C161.119 119.387 165.378 114.772 170.631 114.772C175.884 114.772 180.143 119.387 180.143 125.079C180.143 130.771 175.884 135.386 170.631 135.386Z" fill="#E9F5F1"/>
<path d="M120.762 135.386C115.509 135.386 111.25 130.771 111.25 125.079C111.25 119.387 115.509 114.772 120.762 114.772C126.015 114.772 130.274 119.387 130.274 125.079C130.274 130.771 126.015 135.386 120.762 135.386Z" fill="#CCCCCC"/>
<path d="M144.928 105.092C139.674 105.092 135.416 100.477 135.416 94.7848C135.416 89.0926 139.674 84.4781 144.928 84.4781C150.181 84.4781 154.439 89.0926 154.439 94.7848C154.439 100.477 150.181 105.092 144.928 105.092Z" fill="#0CBB7E"/>
<path d="M9.51179 105.092C4.25859 105.092 1.22814e-05 100.477 1.22814e-05 94.7848C1.22814e-05 89.0926 4.25859 84.4781 9.51179 84.4781C14.765 84.4781 19.0236 89.0926 19.0236 94.7848C19.0236 100.477 14.765 105.092 9.51179 105.092Z" fill="#0CBB7E"/>
<path d="M56.0864 105.092C50.8332 105.092 46.5747 100.477 46.5747 94.7848C46.5747 89.0926 50.8332 84.4781 56.0864 84.4781C61.3396 84.4781 65.5982 89.0926 65.5982 94.7848C65.5982 100.477 61.3396 105.092 56.0864 105.092Z" fill="#0CBB7E"/>
<path d="M162.022 0L179.664 0V13.1754L162.022 13.1754V0Z" fill="#E9F5F1"/>
<path d="M323.995 0L341.637 0V13.1754L323.995 13.1754V0Z" fill="#0CBB7E"/>
<path d="M264.236 0L281.879 0V13.1754L264.236 13.1754V0Z" fill="#CCCCCC"/>
<path d="M303.39 95.4775C303.536 95.4775 303.677 95.4144 303.781 95.302C303.885 95.1897 303.943 95.0373 303.943 94.8784V65.3024C303.942 64.5082 303.65 63.7467 303.132 63.1851C302.614 62.6235 301.911 62.3075 301.178 62.3066H274.264C274.117 62.3066 273.976 62.3698 273.873 62.4821C273.769 62.5945 273.711 62.7469 273.711 62.9058C273.711 63.0647 273.769 63.2171 273.873 63.3295C273.976 63.4418 274.117 63.5049 274.264 63.5049H301.178C301.618 63.5055 302.04 63.695 302.35 64.032C302.661 64.369 302.836 64.8259 302.837 65.3024V94.8784C302.837 95.0373 302.895 95.1897 302.999 95.302C303.103 95.4144 303.243 95.4775 303.39 95.4775Z" fill="#E9F5F1"/>
<path d="M272.999 72.9885C267.745 72.9885 263.487 68.3741 263.487 62.6818C263.487 56.9895 267.745 52.375 272.999 52.375C278.252 52.375 282.51 56.9895 282.51 62.6818C282.51 68.3741 278.252 72.9885 272.999 72.9885Z" fill="#E6E6E6"/>
<path d="M90.5057 94.8784H91.6116V65.3024C91.6108 64.5082 91.3192 63.7467 90.8009 63.1851C90.2826 62.6235 89.5799 62.3075 88.8469 62.3066H61.9324V63.5049H88.8469C89.2867 63.5055 89.7084 63.695 90.0194 64.032C90.3303 64.369 90.5053 64.8259 90.5057 65.3024V94.8784Z" fill="#E9F5F1"/>
<path d="M60.6676 72.9885C55.4144 72.9885 51.1558 68.3741 51.1558 62.6818C51.1558 56.9895 55.4144 52.375 60.6676 52.375C65.9208 52.375 70.1793 56.9895 70.1793 62.6818C70.1793 68.3741 65.9208 72.9885 60.6676 72.9885Z" fill="#E6E6E6"/>
<path d="M390.771 301.331L387.951 315.149L440.409 332.505L444.573 312.111L390.771 301.331Z" fill="#FFB6B6"/>
<path d="M396.045 298.719L390.489 325.932L390.489 325.933C389.55 330.532 386.804 334.573 382.857 337.167C378.911 339.762 374.085 340.696 369.442 339.766L368.873 339.652L377.971 295.098L396.045 298.719Z" fill="#2F2E41"/>
<path d="M450.218 110.996C469.89 110.996 485.837 95.1975 485.837 75.7096C485.837 56.2218 469.89 40.4237 450.218 40.4237C430.546 40.4237 414.599 56.2218 414.599 75.7096C414.599 95.1975 430.546 110.996 450.218 110.996Z" fill="#FEB8B8"/>
<path d="M483.649 45.331C479.975 33.5205 472.688 34.0063 468.801 28.1767L459.05 26.2571L455.873 26.6652C453.534 26.3105 451.166 26.1738 448.801 26.2571L445.968 23.8044L437.224 26.2571C431.638 26.9447 428.945 28.7267 424.107 31.5773C419.27 34.4279 418.679 41.1314 415.403 45.6656C407.21 57.3661 407.344 71.0789 415.403 82.8733C417.614 76.1387 418.008 69.8449 420.221 63.111C421.959 63.3458 425.767 59.3169 427.508 59.0988L430.445 56.89L437.224 58.2965C446.94 52.4669 446.319 58.3376 454.227 56.8893L459.05 54.5281L463.457 55.8675C465.88 55.3151 474.145 59.0988 474.145 59.0988C480.027 68.4918 480.473 72.2816 486.354 81.6747C488.587 68.43 491.158 57.4172 483.649 45.331Z" fill="#2F2E41"/>
<path d="M461.807 306.613C512.46 306.613 553.522 295.235 553.522 281.199C553.522 267.164 512.46 255.785 461.807 255.785C411.155 255.785 370.093 267.164 370.093 281.199C370.093 295.235 411.155 306.613 461.807 306.613Z" fill="#2F2E41"/>
<path d="M526.825 166.449C525.6 159.149 524.337 151.709 520.912 145.132C518.661 140.825 515.088 136.72 510.272 135.869C509.323 135.785 508.39 135.571 507.501 135.233C506.09 134.56 487.125 123.835 484.11 121.967C481.522 120.363 477.437 117.394 475.376 117.394C473.304 117.349 465.357 119.181 434.34 116.779C429.122 118.854 424.07 121.315 419.225 124.141C419.125 124.076 387.032 141.148 385.826 141.103C383.543 141.008 381.421 142.456 380.112 144.28C378.803 146.104 378.189 148.362 377.546 150.545C384.556 166.009 390.97 181.493 397.98 196.958C398.308 197.54 398.483 198.195 398.487 198.862C398.346 199.555 398.048 200.206 397.615 200.767C394.177 206.238 394.286 213.119 394.662 219.548C395.038 225.978 395.502 232.77 392.602 238.533C391.813 240.116 390.787 241.564 390.036 243.146C388.279 246.73 387.644 258.191 388.67 262.042L517.265 265.691C514.5 258.162 526.825 166.449 526.825 166.449Z" fill="#00BFA6"/>
<path d="M366.431 197.643C366.174 199.482 366.148 201.345 366.354 203.19L368.197 229.412C368.37 231.883 368.54 234.348 368.774 236.814C369.216 241.598 369.877 246.344 370.697 251.083C370.716 251.756 371.003 252.394 371.496 252.858C371.989 253.321 372.647 253.572 373.326 253.555C381.44 255.255 389.822 255.187 398.102 254.724C410.737 254.025 443.063 252.704 445.037 250.162C447.012 247.621 445.861 243.51 443.286 241.455C440.711 239.4 398.053 234.39 398.053 234.39C398.47 231.118 399.728 228.036 400.92 224.929C403.063 219.419 405.064 213.728 405.102 207.825C405.141 201.923 402.896 195.717 398.015 192.335C394 189.559 388.83 189.044 383.938 189.158C380.378 189.26 374.227 188.415 370.976 189.794C368.403 190.916 366.911 195.147 366.431 197.643Z" fill="#FBBEBE"/>
<path d="M527.053 256.917C529.189 256.11 531.543 256.402 533.832 256.707C541.202 257.704 548.68 258.727 555.51 261.644C558.717 263.004 561.77 264.821 563.938 267.494C565.861 269.902 566.984 272.85 568.049 275.754L570.512 282.438C571.56 284.949 572.281 287.581 572.661 290.272C573.431 298.271 567.908 305.813 560.963 309.968C554.017 314.124 545.84 315.604 537.873 317.154C529.907 318.704 521.91 320.419 513.976 322.237C510.276 323.188 506.522 323.92 502.733 324.429C494.242 325.381 485.365 323.978 477.297 326.761C474.09 327.873 470.941 329.524 467.614 330.293C465.403 330.754 463.168 331.091 460.919 331.303L445.648 333.031C442.543 333.443 439.416 333.68 436.284 333.743C429.614 333.743 423.053 332.178 416.576 330.614C415.888 330.494 415.233 330.232 414.653 329.845C413.628 329.044 413.403 327.627 413.255 326.344C412.601 320.664 412.029 314.978 411.539 309.285C411.385 307.436 411.269 305.435 412.289 303.879C413.572 301.974 416.074 301.375 418.357 301.006C428.039 299.437 437.847 298.763 447.654 298.992C451.38 295.301 457.525 295.282 462.406 293.274C464.202 292.457 465.939 291.521 467.608 290.472C476.338 285.426 486.095 282.372 496.167 281.533C498.14 281.473 500.099 281.196 502.01 280.707C505.787 279.544 509.232 276.38 513.112 277.155C513.593 275.84 513.926 274.08 515.035 273.178C515.584 272.714 516.266 272.403 516.773 271.907C517.844 270.833 517.94 269.143 517.779 267.644C517.619 266.144 517.259 264.607 517.651 263.145C517.814 262.592 518.053 262.064 518.363 261.576C520.28 258.289 523.186 256.599 527.053 256.917Z" fill="#2F2E41"/>
<path d="M377.175 151.015C376.551 151.663 376.066 152.431 375.752 153.271C370.567 164.846 367.505 177.242 366.709 189.88C366.723 190.496 366.579 191.106 366.292 191.653C366.008 192.017 365.693 192.355 365.349 192.663C365.049 193.015 364.822 193.422 364.681 193.861C364.54 194.3 364.488 194.762 364.527 195.221C364.567 195.68 364.697 196.127 364.911 196.536C365.124 196.945 365.417 197.309 365.772 197.606C365.831 197.654 365.891 197.701 365.952 197.746C367.01 195.773 369.543 195.128 371.795 194.957C382.576 194.112 393.107 199.081 403.92 198.706C403.158 196.094 402.06 193.585 401.438 190.942C398.687 179.207 405.549 166.43 401.342 155.127C400.501 152.865 399.097 150.641 396.885 149.65C395.968 149.284 395.01 149.033 394.031 148.902C391.298 148.413 385.859 146.322 383.217 147.161C382.242 147.473 381.858 148.381 381.05 148.93C379.822 149.707 378.193 149.992 377.175 151.015Z" fill="#00BFA6"/>
<path d="M526.902 189.794C523.65 188.415 517.5 189.26 513.94 189.158C509.047 189.044 503.878 189.559 499.863 192.335C494.982 195.717 492.737 201.923 492.775 207.825C492.814 213.728 494.815 219.419 496.957 224.929C498.15 228.036 499.407 231.118 499.824 234.39C499.824 234.39 457.166 239.4 454.591 241.455C452.016 243.51 450.865 247.621 452.84 250.162C454.815 252.704 516.438 255.255 524.551 253.555C525.231 253.572 525.889 253.321 526.382 252.858C526.875 252.394 527.162 251.756 527.181 251.083C528.001 246.344 528.661 241.598 529.103 236.814C529.338 234.348 529.508 231.883 529.681 229.412L531.524 203.19C531.73 201.345 531.704 199.482 531.447 197.643C530.966 195.147 529.475 190.916 526.902 189.794Z" fill="#FBBEBE"/>
<path d="M516.828 148.93C516.02 148.381 515.635 147.473 514.66 147.161C512.019 146.322 506.579 148.413 503.847 148.902C502.868 149.033 501.909 149.284 500.993 149.65C498.781 150.641 497.376 152.865 496.536 155.127C492.328 166.43 499.191 179.207 496.44 190.942C495.817 193.585 494.72 196.094 493.957 198.706C504.771 199.081 515.302 194.112 526.083 194.957C528.334 195.128 530.868 195.773 531.926 197.746C531.987 197.701 532.047 197.654 532.105 197.606C532.461 197.309 532.753 196.945 532.967 196.536C533.181 196.127 533.311 195.68 533.35 195.221C533.39 194.762 533.337 194.3 533.196 193.861C533.055 193.422 532.828 193.015 532.529 192.663C532.185 192.355 531.869 192.017 531.586 191.653C531.298 191.106 531.155 190.496 531.169 189.88C530.372 177.242 527.31 164.846 522.126 153.271C521.812 152.431 521.327 151.663 520.702 151.015C519.685 149.992 518.056 149.707 516.828 148.93Z" fill="#00BFA6"/>
<path d="M534.862 321.057L532.987 335.031L477.682 334.518L480.45 313.892L534.862 321.057Z" fill="#FFB6B6"/>
<path d="M549.015 319.293L542.969 364.353L542.394 364.278C537.698 363.659 533.443 361.218 530.564 357.492C527.685 353.766 526.418 349.06 527.042 344.408L527.042 344.407L530.734 316.886L549.015 319.293Z" fill="#2F2E41"/>
<path d="M404.752 263.989C404.752 264.624 403.745 263.989 403.653 263.308C402.948 258.168 398.83 253.93 394.033 251.872C389.236 249.813 383.771 249.705 378.576 250.194C370.72 250.931 361.901 253.911 359.027 261.186C358.348 262.887 351.979 278.029 352.601 281.435C354.275 290.52 360.547 298.291 368.147 303.672C375.748 309.054 384.628 312.269 393.486 315.169C416.907 322.821 440.936 328.506 465.319 332.165C469.269 332.756 473.259 333.302 477.043 334.56C480.429 335.684 483.597 337.368 486.907 338.69C494.603 341.751 502.884 342.845 511.086 343.919C512.484 344.097 514.088 344.224 515.12 343.283C516.455 342.059 516.013 339.922 515.633 338.162C514.241 331.471 515.409 324.505 518.911 318.619C520.284 316.332 522.07 313.987 521.81 311.34C521.503 308.253 518.398 306.067 515.307 305.571C512.215 305.075 509.073 305.806 505.968 306.206C504.903 306.449 503.788 306.339 502.793 305.895C502.332 305.586 501.913 305.219 501.549 304.802C499.41 302.759 496.673 301.438 493.731 301.031C490.788 300.624 487.79 301.15 485.168 302.534C484.02 303.17 482.284 301.753 481.089 301.219L467.601 295.171C452.106 288.226 436.534 281.25 420.141 276.853C418.833 276.598 417.59 276.086 416.485 275.347C415.67 274.712 415.087 273.85 414.336 273.142C412.701 271.611 410.422 271.001 408.462 269.914C406.501 268.828 404.303 266.167 404.752 263.989Z" fill="#2F2E41"/>
<path d="M439.669 254.807C444.978 254.807 449.282 250.543 449.282 245.283C449.282 240.024 444.978 235.76 439.669 235.76C434.359 235.76 430.055 240.024 430.055 245.283C430.055 250.543 434.359 254.807 439.669 254.807Z" fill="#FBBEBE"/>
<path d="M460.956 254.807C466.265 254.807 470.57 250.543 470.57 245.283C470.57 240.024 466.265 235.76 460.956 235.76C455.646 235.76 451.342 240.024 451.342 245.283C451.342 250.543 455.646 254.807 460.956 254.807Z" fill="#FBBEBE"/>
<path d="M520.299 266.744H388.221C386.679 266.742 385.201 266.134 384.111 265.054C383.02 263.974 382.407 262.51 382.405 260.982V181.605C382.407 180.077 383.02 178.612 384.111 177.532C385.201 176.452 386.679 175.845 388.221 175.843H520.299C521.841 175.845 523.319 176.452 524.41 177.532C525.5 178.612 526.113 180.077 526.115 181.605V260.982C526.113 262.51 525.5 263.974 524.41 265.054C523.319 266.134 521.841 266.742 520.299 266.744Z" fill="#3F3D56"/>
</svg>
